# xmcd CD database file
#
# Track frame offsets:
#	150
#	8741
#	19253
#	30644
#	45806
#	62745
#	77761
#	88363
#	101576
#	113813
#	129916
#	142616
#	152464
#	164231
#
# Disc length: 2370 seconds
#
# Revision: 0
# Processed by: cddbd v1.5.2PL0 Copyright (c) Steve Scherf et al.
# Submitted via: CDex 1.51
#
DISCID=a409400e
DTITLE=Lynn Anderson - Country Ladies
DYEAR=1900
DGENRE=Country
TTITLE0=Ride, Ride, Ride
TTITLE1=I've been everywhere
TTITLE2=Listen to a Country Song
TTITLE3=I was Country when Country wasn't Cool
TTITLE4=Blue Bayou
TTITLE5=Desperado
TTITLE6=Heartbreak Hotel
TTITLE7=Rose Garden
TTITLE8=Stand by your Man
TTITLE9=The Devil went down to Georgia
TTITLE10=Top of the World
TTITLE11=What a man my man is
TTITLE12=How can I unlove you
TTITLE13=Talking in your sleep
EXTD=
EXTT0=
EXTT1=
EXTT2=
EXTT3=
EXTT4=
EXTT5=
EXTT6=
EXTT7=
EXTT8=
EXTT9=
EXTT10=
EXTT11=
EXTT12=
EXTT13=
PLAYORDER=
